<svg width="2905" height="2905" viewBox="0 0 2905 2905" fill="none" xmlns="http://www.w3.org/2000/svg">
<circle cx="1452.5" cy="1452.5" r="1452.5" fill="#494949"/>
<mask id="mask0_102_2" style="mask-type:alpha" maskUnits="userSpaceOnUse" x="0" y="0" width="2905" height="2905">
<circle cx="1452.5" cy="1452.5" r="1452.5" fill="black"/>
</mask>
<g mask="url(#mask0_102_2)">
<g filter="url(#filter0_d_102_2)">
<path fill-rule="evenodd" clip-rule="evenodd" d="M3120.06 2941C3154.7 2941 3176.35 2903.5 3159.03 2873.5L1885.97 668.5C1868.65 638.5 1825.35 638.5 1808.03 668.5L1116.7 1865.91C1099.38 1895.91 1056.08 1895.91 1038.76 1865.91L705.971 1289.5C688.651 1259.5 645.349 1259.5 628.029 1289.5L-224.14 2765.5C-241.461 2795.5 -219.81 2833 -185.169 2833H496C523.713 2833 541.034 2863 527.177 2887V2887C513.321 2911 530.641 2941 558.354 2941H3120.06Z" fill="#939393"/>
</g>
</g>
<defs>
<filter id="filter0_d_102_2" x="-280.236" y="296" width="3895.36" height="2795" filterUnits="userSpaceOnUse" color-interpolation-filters="sRGB">
<feFlood flood-opacity="0" result="BackgroundImageFix"/>
<feColorMatrix in="SourceAlpha" type="matrix" values="0 0 0 0 0 0 0 0 0 0 0 0 0 0 0 0 0 0 127 0" result="hardAlpha"/>
<feOffset dx="200" dy="-100"/>
<feGaussianBlur stdDeviation="125"/>
<feComposite in2="hardAlpha" operator="out"/>
<feColorMatrix type="matrix" values="0 0 0 0 0 0 0 0 0 0 0 0 0 0 0 0 0 0 0.1 0"/>
<feBlend mode="normal" in2="BackgroundImageFix" result="effect1_dropShadow_102_2"/>
<feBlend mode="normal" in="SourceGraphic" in2="effect1_dropShadow_102_2" result="shape"/>
</filter>
</defs>
</svg>
